<?xml version="1.0" encoding="UTF-8"?>
<svg id="Layer_1" data-name="Layer 1" xmlns="http://www.w3.org/2000/svg" viewBox="0 0 512 512">
  <defs>
    <style>
      .cls-1 {
        fill: #fff;
      }
    </style>
  </defs>
  <path class="cls-1" d="M464,256c0-114.88-93.12-208-208-208S48,141.12,48,256s93.12,208,208,208,208-93.12,208-208ZM0,256C0,114.62,114.62,0,256,0s256,114.62,256,256-114.62,256-256,256S0,397.38,0,256Zm188.3-108.9c7.6-4.2,16.8-4.1,24.3,.5l144,88c7.1,4.4,11.5,12.1,11.5,20.5s-4.4,16.1-11.5,20.5l-144,88c-7.4,4.5-16.7,4.7-24.3,.5s-12.3-12.2-12.3-20.9V168c0-8.7,4.7-16.7,12.3-20.9Z"/>
</svg>